HIERARCHY
ROOT SpineBase
{
  OFFSET 0.000000 0.000000 0.000000
  CHANNELS 6 Xposition Yposition Zposition Zrotation Xrotation Yrotation
  JOINT SpineMid
  {
    OFFSET 0.000000 34.386686 0.000000
    CHANNELS 3 Zrotation Xrotation Yrotation
    JOINT SpineShoulder
    {
      OFFSET -0.408886 25.792605 -0.792236
      CHANNELS 3 Zrotation Xrotation Yrotation
      JOINT Neck
      {
        OFFSET -0.271515 8.625795 -0.601462
        CHANNELS 3 Zrotation Xrotation Yrotation
        JOINT Head
        {
          OFFSET 1.051125 9.955897 4.260690
          CHANNELS 3 Zrotation Xrotation Yrotation
          End Site
          {
            OFFSET 0 0 0
          }
        }
      }
      JOINT ShoulderLeft
      {
        OFFSET -14.281164 -6.690404 -3.525392
        CHANNELS 3 Zrotation Xrotation Yrotation
        JOINT ElbowLeft
        {
          OFFSET -4.522944 -29.577814 8.254576
          CHANNELS 3 Zrotation Xrotation Yrotation
          JOINT WristLeft
          {
            OFFSET -0.947522 -23.883089 3.925094
            CHANNELS 3 Zrotation Xrotation Yrotation
            JOINT HandLeft
            {
              OFFSET 0.234947 -2.654190 0.931517
              CHANNELS 3 Zrotation Xrotation Yrotation
              JOINT HandTipLeft
              {
                OFFSET -0.147147 -3.660270 -3.326529
                CHANNELS 3 Zrotation Xrotation Yrotation
                End Site
                {
                  OFFSET 0 0 0
                }
              }
              JOINT ThumbLeft
              {
                OFFSET -1.455193 1.183841 -0.970037
                CHANNELS 3 Zrotation Xrotation Yrotation
                End Site
                {
                  OFFSET 0 0 0
                }
              }
            }
          }
        }
      }
      JOINT ShoulderRight
      {
        OFFSET 13.110945 -5.642689 -11.378031
        CHANNELS 3 Zrotation Xrotation Yrotation
        JOINT ElbowRight
        {
          OFFSET 6.208157 -27.119106 -0.121157
          CHANNELS 3 Zrotation Xrotation Yrotation
          JOINT WristRight
          {
            OFFSET 1.634582 -27.542072 6.879218
            CHANNELS 3 Zrotation Xrotation Yrotation
            JOINT HandRight
            {
              OFFSET 0.520223 -2.117055 0.459189
              CHANNELS 3 Zrotation Xrotation Yrotation
              JOINT HandTipRight
              {
                OFFSET -0.527180 -0.040777 -0.157170
                CHANNELS 3 Zrotation Xrotation Yrotation
                End Site
                {
                  OFFSET 0 0 0
                }
              }
              JOINT ThumbRight
              {
                OFFSET 0.669978 1.738032 -1.744596
                CHANNELS 3 Zrotation Xrotation Yrotation
                End Site
                {
                  OFFSET 0 0 0
                }
              }
            }
          }
        }
      }
    }
  }
  JOINT HipLeft
  {
    OFFSET -7.535950 1.579100 -1.679895
    CHANNELS 3 Zrotation Xrotation Yrotation
    JOINT KneeLeft
    {
      OFFSET -6.213887 -31.674655 1.141661
      CHANNELS 3 Zrotation Xrotation Yrotation
      JOINT AnkleLeft
      {
        OFFSET 0.229962 -32.833508 1.870783
        CHANNELS 3 Zrotation Xrotation Yrotation
        JOINT FootLeft
        {
          OFFSET -5.628267 0.599879 -16.052058
          CHANNELS 3 Zrotation Xrotation Yrotation
          End Site
          {
            OFFSET 0 0 0
          }
        }
      }
    }
  }
  JOINT HipRight
  {
    OFFSET 5.164883 2.406052 -4.692862
    CHANNELS 3 Zrotation Xrotation Yrotation
    JOINT KneeRight
    {
      OFFSET 3.940874 -27.480506 -7.343412
      CHANNELS 3 Zrotation Xrotation Yrotation
      JOINT AnkleRight
      {
        OFFSET 1.988773 -38.418721 -3.047126
        CHANNELS 3 Zrotation Xrotation Yrotation
        JOINT FootRight
        {
          OFFSET -2.405115 -2.991503 -5.718376
          CHANNELS 3 Zrotation Xrotation Yrotation
          End Site
          {
            OFFSET 0 0 0
          }
        }
      }
    }
  }
}
MOTION
Frames: 16
Frame Time: 0.033333
96.615570 69.110399 272.117474 -0.000000 0.000000 13.345352 0.000000 0.000000 -13.345352 -0.000000 0.000000 0.000000 -0.000000 0.000000 0.000000 0.000000 0.000000 0.000000 -0.000000 0.000000 0.000000 -0.000000 0.000000 0.000000 -0.000000 0.000000 0.000000 -0.000000 0.000000 0.000000 0.000000 0.000000 0.000000 0.000000 0.000000 0.000000 -0.000000 0.000000 0.000000 -0.000000 0.000000 0.000000 -0.000000 0.000000 0.000000 -0.000000 0.000000 0.000000 0.000000 0.000000 0.000000 0.000000 0.000000 0.000000 0.000000 0.000000 -13.345352 -0.000000 0.000000 0.000000 -0.000000 0.000000 0.000000 0.000000 0.000000 0.000000 0.000000 0.000000 -13.345352 -0.000000 0.000000 0.000000 -0.000000 0.000000 0.000000 0.000000 0.000000 0.000000
96.582057 69.106328 272.124951 0.001025 0.034086 13.280257 -0.008828 -0.032939 -13.280260 -0.000000 0.000000 0.000000 -0.000000 0.000000 0.000000 0.000000 0.000000 0.000000 -0.000000 0.000000 0.000000 -0.000000 0.000000 0.000000 0.266096 -2.873013 -0.152931 -0.978075 4.169766 0.786118 0.000000 0.000000 0.000000 0.000000 0.000000 0.000000 -0.000000 0.000000 0.000000 0.555495 0.674345 0.175708 -4.737449 -1.026075 -1.249827 87.589692 -15.146082 14.826520 0.000000 0.000000 0.000000 0.000000 0.000000 0.000000 -0.008828 -0.032939 -13.280260 -0.000000 0.000000 0.000000 2.243384 -7.140928 -2.420439 0.000000 0.000000 0.000000 -0.008828 -0.032939 -13.280260 -0.000000 0.000000 0.000000 -1.596512 5.495904 -1.172606 0.000000 0.000000 0.000000
96.550488 69.102544 272.142775 0.001150 0.055169 13.241168 -0.013756 -0.053439 -13.241175 -0.000000 0.000000 0.000000 0.168624 -1.185473 0.054997 0.000000 0.000000 0.000000 -0.000000 0.000000 0.000000 -0.000000 0.000000 0.000000 0.592871 -5.105623 -0.214285 -2.002197 7.168471 1.556840 0.000000 0.000000 0.000000 0.000000 0.000000 0.000000 -0.000000 0.000000 0.000000 1.050615 1.273182 0.327040 -11.239691 -2.655862 -3.323847 104.486880 -13.788768 16.304782 0.000000 0.000000 0.000000 0.000000 0.000000 0.000000 -0.013756 -0.053439 -13.241175 -0.000000 0.000000 0.000000 5.215285 -18.268531 -5.646259 0.000000 0.000000 0.000000 -0.013756 -0.053439 -13.241175 -0.000000 0.000000 0.000000 -2.665381 9.284975 -1.847441 0.000000 0.000000 0.000000
96.520863 69.099048 272.170944 0.000373 0.063253 13.228229 -0.014837 -0.061489 -13.228237 -0.000000 0.000000 0.000000 0.239678 -1.836224 0.095829 0.000000 0.000000 0.000000 -0.000000 0.000000 0.000000 -0.000000 0.000000 0.000000 0.988053 -6.842716 -0.196316 -3.084621 9.126453 2.321012 0.000000 0.000000 0.000000 0.000000 0.000000 0.000000 -0.000000 0.000000 0.000000 1.471622 1.777766 0.451675 -20.311000 -5.198930 -6.852414 116.390992 -12.325480 13.716823 0.000000 0.000000 0.000000 0.000000 0.000000 0.000000 -0.014837 -0.061489 -13.228237 -0.000000 0.000000 0.000000 8.666031 -33.983256 -9.439055 0.000000 0.000000 0.000000 -0.014837 -0.061489 -13.228237 -0.000000 0.000000 0.000000 -3.424544 11.939543 -2.228411 0.000000 0.000000 0.000000
96.493180 69.095839 272.209459 -0.001306 0.058329 13.241562 -0.012090 -0.057078 -13.241567 -0.000000 0.000000 0.000000 0.302356 -2.524334 0.145233 0.000000 0.000000 0.000000 -0.000000 0.000000 0.000000 -0.000000 0.000000 0.000000 1.460681 -8.182692 -0.105633 -4.245028 10.068114 3.094349 0.000000 0.000000 0.000000 0.000000 0.000000 0.000000 -0.000000 0.000000 0.000000 1.805321 2.170167 0.547644 -32.557608 -8.760964 -12.729979 128.753410 -11.813386 7.648865 0.000000 0.000000 0.000000 0.000000 0.000000 0.000000 -0.012090 -0.057078 -13.241567 -0.000000 0.000000 0.000000 11.780334 -50.865006 -12.829853 0.000000 0.000000 0.000000 -0.012090 -0.057078 -13.241567 -0.000000 0.000000 0.000000 -3.987144 13.802847 -2.416570 0.000000 0.000000 0.000000
96.467442 69.092917 272.258321 -0.003889 0.040383 13.281263 -0.005492 -0.040196 -13.281264 -0.000000 0.000000 0.000000 0.357016 -3.248765 0.202957 0.000000 0.000000 0.000000 -0.000000 0.000000 0.000000 -0.000000 0.000000 0.000000 2.022343 -9.191112 0.055419 -5.512923 9.892548 3.902372 0.000000 0.000000 0.000000 0.000000 0.000000 0.000000 -0.000000 0.000000 0.000000 2.039799 2.434355 0.613291 -47.065865 -12.789732 -21.370055 140.998710 -13.642461 -1.507478 0.000000 0.000000 0.000000 0.000000 0.000000 0.000000 -0.005492 -0.040196 -13.281264 -0.000000 0.000000 0.000000 13.961726 -62.654300 -14.587357 0.000000 0.000000 0.000000 -0.005492 -0.040196 -13.281264 -0.000000 0.000000 0.000000 -4.416426 15.082410 -2.464607 0.000000 0.000000 0.000000
96.435584 69.092586 272.306655 -0.017096 0.003310 13.375079 0.015866 -0.007175 -13.375077 -0.000000 0.000000 0.000000 0.391740 -4.108243 0.284802 0.000000 0.000000 0.000000 0.645078 0.570167 0.089834 -0.646003 -0.569118 -0.096252 2.707070 -6.528277 0.514781 -6.656478 7.626488 3.804747 0.000000 0.000000 0.000000 0.000000 0.000000 0.000000 -0.000000 0.000000 0.000000 1.866316 2.861803 0.592569 -76.959701 -18.637279 -45.178552 157.884886 -24.772924 -23.937070 0.000000 0.000000 0.000000 0.000000 0.000000 0.000000 0.015866 -0.007175 -13.375077 -0.000000 0.000000 0.000000 16.937740 -76.065701 -15.805720 0.000000 0.000000 0.000000 0.015866 -0.007175 -13.375077 -0.000000 0.000000 0.000000 -4.546939 14.636404 -1.997083 0.000000 0.000000 0.000000
96.411773 69.093710 272.370536 -0.024015 -0.027606 13.449542 0.029777 0.021264 -13.449554 -0.000000 0.000000 0.000000 0.465627 -5.103535 0.367832 0.000000 0.000000 0.000000 0.854215 0.670601 0.131216 -0.855807 -0.668569 -0.141208 2.977011 -7.515941 0.560165 -8.076659 -11.654394 6.052492 0.000000 0.000000 0.000000 0.000000 0.000000 0.000000 -0.000000 0.000000 0.000000 1.902621 2.698664 0.593537 -82.807850 -23.446128 -54.724569 154.360891 -31.538057 -34.960437 0.000000 0.000000 0.000000 0.000000 0.000000 0.000000 0.029777 0.021264 -13.449554 -0.000000 0.000000 0.000000 19.055265 -76.332680 -13.294940 0.000000 0.000000 0.000000 0.029777 0.021264 -13.449554 -0.000000 0.000000 0.000000 -4.509100 14.486692 -1.970863 0.000000 0.000000 0.000000
96.397332 69.091413 272.461970 -0.018862 -0.078117 13.636747 0.036748 0.071468 -13.636783 -0.000000 0.000000 0.000000 0.499929 -5.994801 0.456156 0.000000 0.000000 0.000000 1.050045 0.673651 0.184429 -0.654735 -1.494287 -0.090925 3.982796 -9.894082 0.815519 -10.819439 -10.760688 8.090491 0.000000 0.000000 0.000000 0.000000 0.000000 0.000000 -0.000000 0.000000 0.000000 2.410301 2.136198 0.686294 -70.718554 -23.314653 -43.734323 151.175766 -29.664663 -27.385215 0.000000 0.000000 0.000000 0.000000 0.000000 0.000000 0.036748 0.071468 -13.636783 -0.000000 0.000000 0.000000 16.628911 -63.397521 -10.843525 0.000000 0.000000 0.000000 0.036748 0.071468 -13.636783 -0.000000 0.000000 0.000000 -3.326098 8.569759 -0.251829 0.000000 0.000000 0.000000
96.393150 69.079372 272.575408 -0.017615 -0.151310 13.804033 0.053209 0.142736 -13.804123 -0.000000 0.000000 0.000000 0.578089 -6.601973 0.496250 0.000000 0.000000 0.000000 1.127111 0.508330 0.232469 -0.639814 -1.453659 -0.115534 4.044321 -14.346510 0.627606 -7.663386 7.990127 4.395222 0.000000 0.000000 0.000000 0.000000 0.000000 0.000000 -0.841689 -0.096565 -0.019087 3.199313 1.340495 0.651837 -50.825795 -23.548805 -30.050958 141.009834 -21.906636 -15.410031 0.000000 0.000000 0.000000 0.000000 0.000000 0.000000 0.053209 0.142736 -13.804123 -0.000000 0.000000 0.000000 11.016589 -39.259961 -7.312031 0.000000 0.000000 0.000000 0.053209 0.142736 -13.804123 -0.000000 0.000000 0.000000 -3.588273 8.543945 0.211956 0.000000 0.000000 0.000000
96.397522 69.065885 272.697486 -0.010452 -0.249546 14.061855 0.070771 0.239529 -14.062025 -0.000000 0.000000 0.000000 0.581036 -6.937265 0.534012 0.000000 0.000000 0.000000 1.248076 0.456419 0.274322 -0.672027 -1.425699 -0.140509 4.632101 -16.017948 0.840864 -8.252629 18.745688 3.945467 0.000000 0.000000 0.000000 0.000000 0.000000 0.000000 -0.978563 -0.265885 -0.058882 3.480971 0.831549 0.688969 -54.329751 -15.238219 -26.075786 148.057018 -17.160783 -7.408751 0.000000 0.000000 0.000000 0.000000 0.000000 0.000000 0.070771 0.239529 -14.062025 -0.000000 0.000000 0.000000 5.418475 -17.024563 -2.753030 0.000000 0.000000 0.000000 0.070771 0.239529 -14.062025 -0.000000 0.000000 0.000000 -3.445308 7.806309 0.465187 0.000000 0.000000 0.000000
96.400554 69.050146 272.833473 -0.003333 -0.337588 14.271465 0.086452 0.326347 -14.271721 -0.000000 0.000000 0.000000 0.513668 -7.081116 0.576038 0.000000 0.000000 0.000000 1.385217 0.471742 0.309692 -0.729688 -1.383173 -0.165267 4.629469 -20.272594 0.692914 -7.375008 31.419322 2.835933 0.000000 0.000000 0.000000 0.000000 0.000000 0.000000 -1.048434 -0.308868 -0.068994 3.701773 0.321426 0.711247 -50.497132 -10.698897 -20.760224 144.317529 -15.211341 -3.321468 0.000000 0.000000 0.000000 0.000000 0.000000 0.000000 0.086452 0.326347 -14.271721 -0.000000 0.000000 0.000000 3.303503 -9.788939 -0.943796 0.000000 0.000000 0.000000 0.778181 0.894015 -14.317371 -0.529905 -0.721036 0.034949 -3.099881 5.811367 1.258577 0.000000 0.000000 0.000000
96.412884 69.036091 272.953997 -0.001481 -0.426049 14.395031 0.107354 0.412305 -14.395423 -0.000000 0.000000 0.000000 0.533763 -7.166164 0.578351 0.000000 0.000000 0.000000 1.452171 0.379174 0.343488 -0.745838 -1.168299 -0.194879 4.247533 -21.620813 0.481876 -10.204955 36.968078 6.343351 0.000000 0.000000 0.000000 0.000000 0.000000 0.000000 -1.109180 -0.300011 -0.066777 3.857295 -0.009413 0.720482 -48.742988 -7.882319 -17.950804 141.129046 -11.527120 1.103059 0.000000 0.000000 0.000000 0.000000 0.000000 0.000000 0.107354 0.412305 -14.395423 -0.000000 0.000000 0.000000 2.240143 -6.409558 -0.045774 0.000000 0.000000 0.000000 0.859316 1.124590 -14.426974 -0.550848 -0.877085 0.017249 7.845686 -24.633051 12.855949 0.000000 0.000000 0.000000
96.418301 69.027236 273.075626 -0.005794 -0.499419 14.491297 0.130584 0.482080 -14.491872 -0.000000 0.000000 0.000000 0.646041 -7.325754 0.554901 0.000000 0.000000 0.000000 1.370710 0.099582 0.366896 -0.656025 -0.699505 -0.222165 2.774961 -20.808324 -0.181952 -4.405818 28.935464 1.631430 0.000000 0.000000 0.000000 0.000000 0.000000 0.000000 -1.095556 -0.207966 -0.044800 3.862703 -0.239531 0.704477 -42.442537 -6.251126 -14.432763 130.906278 -12.977644 0.871804 0.000000 0.000000 0.000000 0.000000 0.000000 0.000000 0.130584 0.482080 -14.491872 -0.857504 0.607682 -0.040070 2.916419 -6.426663 0.200195 0.000000 0.000000 0.000000 0.944802 1.348439 -14.508023 -0.571311 -1.042587 -0.002054 12.599165 -32.603342 18.191802 0.000000 0.000000 0.000000
96.423401 69.021827 273.182177 0.000233 -0.514354 14.549902 0.128995 0.497916 -14.550461 -0.000000 0.000000 0.000000 0.608483 -7.697514 0.612412 0.000000 0.000000 0.000000 1.315052 -0.006884 0.368792 -0.605225 -0.456752 -0.230170 0.706090 -20.073121 -1.144524 -4.511695 31.356175 3.925353 0.000000 0.000000 0.000000 0.000000 0.000000 0.000000 -1.031629 -0.001345 0.004298 3.709054 -0.341261 0.650775 -36.456110 -6.516859 -12.510326 115.961421 -11.914679 -0.318883 0.000000 0.000000 0.000000 0.000000 0.000000 0.000000 0.128995 0.497916 -14.550461 -0.919626 0.827128 -0.039987 3.799311 -9.192444 -0.463107 0.000000 0.000000 0.000000 1.057700 1.553600 -14.556382 -0.633724 -1.255037 -0.017647 16.738003 -37.888043 22.674451 0.000000 0.000000 0.000000
96.420456 69.018162 273.273564 0.015007 -0.497162 14.586469 0.110685 0.484917 -14.586872 -0.000000 0.000000 0.000000 0.464538 -8.033071 0.704796 0.000000 0.000000 0.000000 1.292806 0.031039 0.356356 -0.577231 -0.445952 -0.219420 -1.721889 -16.706135 -2.042711 0.186300 25.036565 1.471120 0.000000 0.000000 0.000000 0.000000 0.000000 0.000000 -0.877377 0.267119 0.067232 3.402461 -0.286437 0.578169 -31.348435 -10.120953 -12.645437 110.394901 -14.261750 -4.880761 0.000000 0.000000 0.000000 0.000000 0.000000 0.000000 0.110685 0.484917 -14.586872 -0.931489 1.031508 -0.037487 3.808579 -9.398607 -0.496269 0.000000 0.000000 0.000000 1.126337 1.714795 -14.578888 -0.673609 -1.445710 -0.035980 16.706204 -37.774238 22.151305 0.000000 0.000000 0.000000
